# xmcd
#
# Track frame offsets:
#	182
#	12672
#	29587
#	48542
#	62570
#	79230
#	94555
#	105460
#	122000
#	132490
#	148640
#	165010
#
# Disc length: 2363
#
# Revision: 6
# Processed by: cddbd v1.5.1PL0 Copyright (c) Steve Scherf et al.
# Submitted via: ExactAudioCopy v0.95a3
# Normalized: r4:TDELIM( - ),TSWAP
#
DISCID=9b09390c
DTITLE=Various Artist - Anerica's Music: The Roots Of Country
DYEAR=1996
DGENRE=Country
TTITLE0=Joe Stampley, John Anderson, Tracy Lawrence, Tim McGraw - Just Good Ol' Boys
TTITLE1=Merle Haggard, Jeff Carson - Today I Started Loving You Again
TTITLE2=Hank Williams Jr. and Waylon Jennings - The Pressure Is On
TTITLE3=Eddy Arnold and Leann Rimes - Cattle Call
TTITLE4=Patty Loveless - Nothin' But Love
TTITLE5=Jeffrey Steele - Roots Of Country
TTITLE6=Kathy Mattea - Tennessee Waltz
TTITLE7=Carl Perkins, Phillip Claypool - Mile Out Of Memphis
TTITLE8=Patsy Cline - Lovesick Blues
TTITLE9=T.G. Sheppard - I Can Help
TTITLE10=Jim Lauderdale Featuring Emmylou Harris - Some Things Are Just Too Good To Last
TTITLE11=Toby Keith - Oklahoma Hills
EXTD=
EXTT0=
EXTT1=
EXTT2=
EXTT3=
EXTT4=
EXTT5=
EXTT6=
EXTT7=
EXTT8=
EXTT9=
EXTT10=
EXTT11=
PLAYORDER=
